
  <svg width="160.5" height="48" viewBox="0 0 856 256" fill="none" xmlns="http://www.w3.org/2000/svg" xmlns:xlink="http://www.w3.org/1999/xlink" version="1.1">
    
        <g transform="translate(0, 0)">
          <svg xmlns="http://www.w3.org/2000/svg" width="256" height="256" fill="none" viewBox="0 0 256 256"><rect width="256" height="256" fill="#0073AA" rx="60"/><path fill="#fff" d="M42.2141 127.994C42.2141 161.949 61.9469 191.293 90.561 205.199L49.641 93.0829C44.8813 103.752 42.2141 115.558 42.2141 127.994Z"/><path fill="#fff" d="M185.908 123.665C185.908 113.064 182.1 105.722 178.834 100.007C174.485 92.9408 170.409 86.9568 170.409 79.8906C170.409 72.005 176.39 64.6646 184.814 64.6646C185.195 64.6646 185.555 64.7119 185.926 64.7332C170.664 50.7509 150.331 42.2141 127.997 42.2141C98.0286 42.2141 71.6621 57.5903 56.3235 80.8798C58.3361 80.9402 60.2328 80.9826 61.8439 80.9826C70.8166 80.9826 84.7058 79.8939 84.7058 79.8939C89.3301 79.6213 89.8753 86.4133 85.2559 86.9601C85.2559 86.9601 80.6087 87.5069 75.4376 87.7779L106.676 180.696L125.449 124.393L112.084 87.7746C107.465 87.5037 103.089 86.9568 103.089 86.9568C98.466 86.6859 99.008 79.6181 103.631 79.8906C103.631 79.8906 117.797 80.9794 126.226 80.9794C135.198 80.9794 149.088 79.8906 149.088 79.8906C153.716 79.6181 154.259 86.41 149.638 86.9568C149.638 86.9568 144.981 87.5037 139.82 87.7746L170.821 179.989L179.377 151.397C183.086 139.531 185.908 131.009 185.908 123.665Z"/><path fill="#fff" d="M129.503 135.498L103.765 210.288C111.449 212.547 119.577 213.783 127.998 213.783C137.987 213.783 147.567 212.056 156.484 208.92C156.254 208.553 156.045 208.163 155.874 207.738L129.503 135.498Z"/><path fill="#fff" d="M203.269 86.8375C203.638 89.5699 203.847 92.5032 203.847 95.6584C203.847 104.363 202.221 114.149 197.324 126.385L171.121 202.144C196.624 187.272 213.778 159.643 213.778 127.996C213.779 113.081 209.97 99.0568 203.269 86.8375Z"/><path fill="#fff" d="M127.998 28C72.8603 28 28 72.857 28 127.994C28 183.138 72.8603 227.993 127.998 227.993C183.133 227.993 228 183.138 228 127.994C227.998 72.857 183.133 28 127.998 28ZM127.998 223.41C75.3887 223.41 32.5851 180.606 32.5851 127.994C32.5851 75.3855 75.3871 32.5851 127.998 32.5851C180.605 32.5851 223.405 75.3855 223.405 127.994C223.405 180.606 180.605 223.41 127.998 223.41Z"/></svg>
        </g>
         
        <g transform="translate(300, 0)">
          <svg xmlns="http://www.w3.org/2000/svg" width="256" height="256" fill="none" viewBox="0 0 256 256"><rect width="256" height="256" fill="#242938" rx="60"/><path fill="#fff" d="M121.451 28.0537C121.021 28.0928 119.652 28.2297 118.42 28.3274C90.0137 30.8885 63.4057 46.216 46.5533 69.7742C37.1691 82.8729 31.1672 97.7312 28.8993 113.469C28.0978 118.963 28 120.586 28 128.034C28 135.483 28.0978 137.106 28.8993 142.599C34.3343 180.155 61.0596 211.71 97.306 223.401C103.797 225.493 110.639 226.92 118.42 227.78C121.451 228.112 134.549 228.112 137.58 227.78C151.011 226.294 162.389 222.971 173.611 217.242C175.331 216.363 175.664 216.128 175.429 215.933C175.273 215.815 167.941 205.981 159.144 194.095L143.152 172.492L123.112 142.834C112.086 126.529 103.015 113.195 102.936 113.195C102.858 113.176 102.78 126.353 102.741 142.443C102.682 170.615 102.663 171.749 102.311 172.413C101.803 173.371 101.412 173.762 100.59 174.193C99.9648 174.505 99.4174 174.564 96.4653 174.564H93.0831L92.1838 173.997C91.5973 173.626 91.1672 173.137 90.8739 172.57L90.4633 171.69L90.5024 132.492L90.5611 93.2737L91.1672 92.5112C91.48 92.1007 92.1447 91.5728 92.6139 91.3186C93.4154 90.9276 93.7283 90.8885 97.1105 90.8885C101.099 90.8885 101.763 91.0449 102.8 92.1789C103.093 92.4917 113.943 108.836 126.925 128.523C139.906 148.21 157.658 175.092 166.377 188.288L182.213 212.277L183.015 211.749C190.111 207.135 197.619 200.566 203.562 193.723C216.211 179.197 224.364 161.485 227.101 142.599C227.902 137.106 228 135.483 228 128.034C228 120.586 227.902 118.963 227.101 113.469C221.666 75.913 194.94 44.3587 158.694 32.6676C152.301 30.5953 145.498 29.1681 137.873 28.3079C135.996 28.1124 123.073 27.8973 121.451 28.0537ZM162.389 88.5425C163.327 89.0117 164.09 89.911 164.364 90.8494C164.52 91.3577 164.559 102.228 164.52 126.724L164.461 161.876L158.264 152.374L152.047 142.873V117.321C152.047 100.801 152.125 91.5141 152.242 91.0645C152.555 89.9697 153.239 89.1095 154.178 88.6011C154.979 88.1906 155.273 88.1515 158.342 88.1515C161.236 88.1515 161.744 88.1906 162.389 88.5425Z"/></svg>
        </g>
         
        <g transform="translate(600, 0)">
          <svg xmlns="http://www.w3.org/2000/svg" width="256" height="256" fill="none" viewBox="0 0 256 256"><rect width="256" height="256" fill="#CD6799" rx="60"/><g clip-path="url(#clip0_137_201)"><path fill="#fff" d="M200.107 139.163C193.133 139.199 187.073 140.879 181.998 143.361C180.136 139.674 178.274 136.388 177.945 133.978C177.58 131.167 177.142 129.451 177.58 126.092C178.018 122.733 179.99 117.951 179.953 117.586C179.917 117.22 179.515 115.505 175.499 115.468C171.483 115.432 168.015 116.235 167.613 117.294C167.211 118.352 166.445 120.762 165.934 123.245C165.24 126.896 157.901 139.93 153.703 146.757C152.352 144.092 151.184 141.755 150.928 139.893C150.563 137.082 150.125 135.366 150.563 132.007C151.001 128.648 152.973 123.865 152.936 123.5C152.9 123.135 152.498 121.419 148.482 121.383C144.466 121.346 140.997 122.149 140.596 123.208C140.194 124.267 139.756 126.75 138.916 129.159C138.077 131.569 128.329 153.329 125.773 158.951C124.459 161.835 123.327 164.135 122.524 165.705C122.524 165.705 122.487 165.815 122.378 165.997C121.684 167.348 121.282 168.078 121.282 168.078C121.282 168.078 121.282 168.078 121.282 168.115C120.735 169.101 120.15 170.013 119.858 170.013C119.639 170.013 119.238 167.385 119.931 163.807C121.392 156.249 124.86 144.493 124.824 144.092C124.824 143.873 125.481 141.828 122.56 140.769C119.712 139.71 118.69 141.463 118.434 141.463C118.179 141.463 117.996 142.084 117.996 142.084C117.996 142.084 121.173 128.867 111.936 128.867C106.167 128.867 98.2081 135.183 94.2651 140.879C91.7824 142.23 86.4885 145.114 80.8295 148.217C78.6755 149.422 76.4484 150.627 74.3673 151.759C74.2213 151.613 74.0753 151.43 73.9292 151.284C62.7573 139.345 42.0928 130.912 42.969 114.884C43.2976 109.042 45.3056 93.7083 82.655 75.0883C113.396 59.9368 137.858 64.1354 142.093 73.4454C148.153 86.7349 128.986 111.415 97.2224 114.993C85.1012 116.344 78.7485 111.671 77.1421 109.919C75.4626 108.093 75.2071 107.984 74.5864 108.349C73.5641 108.896 74.2213 110.539 74.5864 111.488C75.5356 113.971 79.4422 118.352 86.0504 120.506C91.892 122.405 106.094 123.464 123.29 116.819C142.531 109.371 157.573 88.6699 153.155 71.3278C148.738 53.7302 119.53 47.9251 91.892 57.7462C75.4626 63.5878 57.6459 72.7882 44.831 84.7634C29.6065 99.0022 27.1968 111.379 28.1826 116.563C31.724 134.964 57.0983 146.939 67.2479 155.811C66.7368 156.103 66.2622 156.359 65.8606 156.578C60.7857 159.097 41.4356 169.21 36.6163 179.908C31.1399 192.029 37.4926 200.718 41.6912 201.886C54.7251 205.501 68.1242 199.002 75.3166 188.268C82.509 177.534 81.6328 163.588 78.3104 157.199C78.2739 157.126 78.2374 157.053 78.1643 156.98C79.4787 156.213 80.8295 155.41 82.1439 154.643C84.7361 153.11 87.2917 151.686 89.4823 150.517C88.241 153.913 87.3283 157.965 86.8901 163.807C86.3425 170.671 89.1537 179.579 92.8412 183.084C94.4842 184.617 96.4192 184.654 97.6605 184.654C101.969 184.654 103.904 181.076 106.058 176.841C108.686 171.656 111.06 165.632 111.06 165.632C111.06 165.632 108.102 181.916 116.134 181.916C119.055 181.916 122.012 178.119 123.327 176.184C123.327 176.22 123.327 176.22 123.327 176.22C123.327 176.22 123.4 176.111 123.546 175.855C123.838 175.38 124.02 175.088 124.02 175.088C124.02 175.088 124.02 175.052 124.02 175.015C125.189 172.971 127.817 168.334 131.724 160.63C136.762 150.7 141.618 138.287 141.618 138.287C141.618 138.287 142.056 141.317 143.553 146.355C144.429 149.313 146.255 152.562 147.715 155.702C146.547 157.345 145.817 158.257 145.817 158.257C145.817 158.257 145.817 158.257 145.853 158.294C144.904 159.535 143.882 160.886 142.75 162.2C138.77 166.947 134.024 172.387 133.367 173.957C132.6 175.819 132.783 177.169 134.243 178.265C135.302 179.068 137.2 179.177 139.135 179.068C142.713 178.812 145.233 177.936 146.474 177.388C148.409 176.695 150.673 175.636 152.79 174.066C156.697 171.182 159.07 167.056 158.851 161.616C158.741 158.622 157.755 155.629 156.551 152.817C156.916 152.306 157.244 151.795 157.609 151.284C163.78 142.266 168.562 132.372 168.562 132.372C168.562 132.372 169 135.402 170.497 140.441C171.227 142.996 172.724 145.771 174.039 148.473C168.234 153.183 164.656 158.659 163.378 162.237C161.078 168.882 162.867 171.875 166.262 172.569C167.796 172.898 169.986 172.168 171.593 171.474C173.637 170.817 176.047 169.685 178.347 168.005C182.253 165.121 186.014 161.105 185.795 155.665C185.685 153.183 185.028 150.736 184.115 148.363C189.044 146.319 195.397 145.187 203.502 146.136C220.881 148.181 224.313 159.024 223.655 163.588C222.998 168.151 219.347 170.634 218.142 171.401C216.938 172.168 216.536 172.423 216.646 172.971C216.792 173.774 217.376 173.737 218.398 173.591C219.822 173.336 227.525 169.904 227.854 161.507C228.402 150.773 218.179 139.053 200.107 139.163ZM66.0431 184.362C60.2746 190.641 52.2425 193.015 48.7741 191.007C45.0501 188.852 46.5105 179.579 53.5933 172.934C57.9015 168.882 63.4509 165.121 67.1384 162.821C67.9781 162.31 69.2195 161.58 70.7164 160.667C70.9719 160.521 71.118 160.448 71.118 160.448C71.41 160.265 71.7021 160.083 71.9942 159.9C74.5864 169.393 72.1037 177.754 66.0431 184.362ZM108.029 155.811C106.021 160.704 101.823 173.226 99.2669 172.533C97.0763 171.948 95.7255 162.456 98.8288 153.073C100.399 148.363 103.721 142.741 105.656 140.55C108.796 137.045 112.264 135.877 113.104 137.301C114.163 139.163 109.271 152.744 108.029 155.811ZM142.677 172.387C141.837 172.825 141.034 173.117 140.669 172.898C140.413 172.752 141.034 172.168 141.034 172.168C141.034 172.168 145.379 167.494 147.095 165.377C148.08 164.135 149.249 162.675 150.49 161.032C150.49 161.178 150.49 161.361 150.49 161.507C150.49 167.093 145.087 170.853 142.677 172.387ZM169.402 166.289C168.781 165.851 168.891 164.391 170.972 159.827C171.775 158.038 173.674 155.045 176.923 152.16C177.288 153.329 177.544 154.46 177.507 155.519C177.471 162.566 172.432 165.194 169.402 166.289Z"/></g><defs><clipPath id="clip0_137_201"><rect width="200" height="149.909" fill="#fff" transform="translate(28 53)"/></clipPath></defs></svg>
        </g>
        
  </svg>
  